# xmcd
#
# Track frame offsets:
#	150
#	16142
#	32840
#	48760
#	60295
#	80282
#	95705
#	112875
#	129512
#	149457
#	166022
#	180872
#	195405
#	214037
#	234067
#	252787
#	269190
#	286202
#	303035
#
# Disc length: 4277
#
# Revision: 1
# Processed by: cddbd v1.5.1PL0 Copyright (c) Steve Scherf et al.
# Submitted via: ExactAudioCopy v0.90b4
# Normalized: r0:DSETVAR1
#
DISCID=eb10b313
DTITLE=Various Artist - Saturday Night Country Favourites
DYEAR=1998
DGENRE=Country
TTITLE0=Doug Mansfield - One More Beer
TTITLE1=Jane Saunders - Don't Be A Stranger To Your Heart
TTITLE2=Keith Urban - Only You
TTITLE3=Red Rivers - Hillbilly Heart
TTITLE4=Luhrs and Crawford - Wangaratta's Cold Tonight
TTITLE5=Rosemary Rae - Making Love To Merle
TTITLE6=Darren Coggan - Let's Pretend (We're Still In Love Tonight)
TTITLE7=Brent Parlane - Tex Loves Daisy
TTITLE8=Tania Kernaghan - Mary Called Him Sister
TTITLE9=Lee Kernaghan - Dust On My Boots
TTITLE10=Anne Kirkpatrick - A Bottle Of Wine and Patsy Cline
TTITLE11=Slim Dusty - Saddle Boy
TTITLE12=Reg Lindsay - Silence On The Line
TTITLE13=Graeme Connors - On The Edge Of Town
TTITLE14=John Williamson - Galleries Of Pink Galahs
TTITLE15=Ted Egan - The Drover's Boy
TTITLE16=Jimmy Little - Yorta Yorta Man
TTITLE17=The Hired Hands - Big Time Country Star
TTITLE18=Tex Morton, Buddy Williams, Sister Dorrie - I Like Country Music
EXTD=
EXTT0=
EXTT1=
EXTT2=
EXTT3=
EXTT4=
EXTT5=
EXTT6=
EXTT7=
EXTT8=
EXTT9=
EXTT10=
EXTT11=
EXTT12=
EXTT13=
EXTT14=
EXTT15=
EXTT16=
EXTT17=
EXTT18=
PLAYORDER=
